<svg xmlns="http://www.w3.org/2000/svg" viewBox="0 0 400 280"><defs><style>.a589ab5a-2973-49da-a295-38f548f23be3{fill:#7d99ff;opacity:0.1;}.e34db8ea-186a-4857-97c0-b3a624c4c858{fill:#d2d8f8;}.\38 e42b3ba-8039-4677-99ec-d757eb9a10e7{fill:#a3acd3;}.f225fa8f-f8f5-4820-ac34-263b9f226829{fill:#bdefd4;}.\38 126a6c1-ef1f-4854-9fac-c0abe348f9e7{fill:#c2d9f9;}.\39 85720f9-f87f-4024-84b0-d7b478a51fa1{fill:#ffb7b3;}.\35 32003b7-c875-4e24-b02c-bdb9100787ef{fill:#ffe7ab;}.\31 95a1613-67ea-4746-8a8a-2a30d1fae36d{fill:#e2e2e2;}.f6e50d78-4480-41ad-b66d-26c5a82c2c26{fill:#4285f4;}.f4a83ab0-7d86-4f83-aebb-f7bafc33d1d6{fill:#aab7d6;opacity:0.45;}.\33 168eea4-875b-4919-8b2a-ac7cb0150469{fill:#9b9b9b;}.f22e851b-f448-44c2-93e5-a6e6aecaf45d{fill:#7c7c7c;}.\31 440f19d-1f8f-4575-a911-5b77c298557d{fill:#f4b400;}.d7ed3a63-ba45-41df-86a3-bc8591106d5d{fill:#256cc1;}.\39 8c8af2f-bdab-4f3b-b071-c8c1fcf6cc04{fill:#d1d1d1;}.\38 93a3337-2386-4d2f-b045-b25ec6d206ba{fill:#262a35;}.\34 2330ce1-490a-4bbf-bb57-ae50d8ded71f{fill:#db4437;}.f49c0f57-ebac-48bb-ad79-c3b26dc7455e{fill:#15bc64;}.\31 a074a96-8f52-441c-9e4f-8e3dafc42d0b{fill:#161616;}.e0e65029-da41-46be-ad9f-960053288bd1{fill:#232323;}</style></defs><title>Artboard 1</title><g id="f273cbd4-7882-4784-9e60-ca330f1d2ccf" data-name="Layer 4"><path class="a589ab5a-2973-49da-a295-38f548f23be3" d="M91.48,57.66c9-18.22,38-25.56,60.89-17.92,28,9.35,26.77,34.44,51.51,43.24,35.45,12.62,60.89-30.76,84.32-16.79,19.94,11.89,7.49,46.87,33.55,70.61,21.34,19.44,42.48,7.64,52.29,23.2,13.35,21.18-7.86,71.52-44.08,90.72-39.18,20.76-93.6,3.88-97.07,2.76-16.23-5.24-31.86-13.6-54.34-11-17.22,2-18.84,8.12-30.62,6.51-23.15-3.18-26.18-28.21-54.07-42.05-26.38-13.1-38.21,2.08-54.48-11.32C19,178.81,13.08,134.88,29.2,117.08c16.32-18,47.68-.92,59-19.93C95.83,84.39,84,72.79,91.48,57.66Z"/></g><g id="8f04ff7e-995e-429e-bacc-baee91fb1382" data-name="Layer 2"><path class="e34db8ea-186a-4857-97c0-b3a624c4c858" d="M400,295H0V279.19a931.26,931.26,0,0,1,400,1.08Z"/><path class="e34db8ea-186a-4857-97c0-b3a624c4c858" d="M400,295H0V279.19a931.26,931.26,0,0,1,400,1.08Z"/><path class="8e42b3ba-8039-4677-99ec-d757eb9a10e7" d="M113.63,272.35c-2.64.83-4.63,3.56-4,5.67.14.47.58,1.45,6.2,3.79,5,2.08,7.46,3.11,8.57,2.37,1.8-1.2.68-5.83-2.17-8.69C121.78,275,117.8,271,113.63,272.35Z"/><path class="8e42b3ba-8039-4677-99ec-d757eb9a10e7" d="M155.13,270.94c-.48,2,4.28,6.08,7.89,4.71,2.68-1,3.8-4.67,2.43-6.28C163.43,267,155.67,268.64,155.13,270.94Z"/><path class="8e42b3ba-8039-4677-99ec-d757eb9a10e7" d="M251.93,275.6a5.38,5.38,0,0,0,5,5c3.34.16,5.45-3.37,5.84-5.75.27-1.64,0-4.54-2.09-5.39-2.74-1.11-6.33,2.19-6.67,2.51A5.3,5.3,0,0,0,251.93,275.6Z"/><path class="8e42b3ba-8039-4677-99ec-d757eb9a10e7" d="M277.81,282.23c-2.54,3.74-1.07,9.23,2.52,10.86,2.76,1.25,6-.13,10.72-2.17,4.23-1.82,7.32-3.15,7.57-5.43.31-2.88-4.1-5.59-7.57-6.52C287.22,277.94,280.65,278,277.81,282.23Z"/><path class="8e42b3ba-8039-4677-99ec-d757eb9a10e7" d="M198.52,276.38a4.21,4.21,0,0,0,.89,5.38c1.93,1.65,4.86,1.09,7.1.66,1.18-.23,5.9-1.13,6.22-3.28.29-2-3.3-4-6.31-4.62C205.83,274.4,200.42,273.45,198.52,276.38Z"/></g><g id="fb4ded9a-e7bb-44ba-9d28-d4206bfddf7b" data-name="Layer 1"><rect class="e34db8ea-186a-4857-97c0-b3a624c4c858" x="48" y="45" width="7" height="7"/><rect class="f225fa8f-f8f5-4820-ac34-263b9f226829" x="14" y="163" width="5" height="5" transform="translate(-116.24 65.28) rotate(-47.25)"/><rect class="f225fa8f-f8f5-4820-ac34-263b9f226829" x="235" y="104" width="5" height="5" transform="translate(-1.91 208.63) rotate(-47.25)"/><rect class="f225fa8f-f8f5-4820-ac34-263b9f226829" x="216" y="21" width="5" height="5" transform="translate(307.4 224.48) rotate(-120)"/><rect class="f225fa8f-f8f5-4820-ac34-263b9f226829" x="56.71" y="95.71" width="3.59" height="3.59" transform="translate(-11.48 7.88) rotate(-7.02)"/><rect class="f225fa8f-f8f5-4820-ac34-263b9f226829" x="112.71" y="56.71" width="3.59" height="3.59" transform="translate(-6.29 14.44) rotate(-7.02)"/><rect class="8126a6c1-ef1f-4854-9fac-c0abe348f9e7" x="47.06" y="209.06" width="2.88" height="2.88" rx="1.44" ry="1.44" transform="translate(-139 103.24) rotate(-47.25)"/><rect class="985720f9-f87f-4024-84b0-d7b478a51fa1" x="153.19" y="35.19" width="2.62" height="2.62" transform="translate(99.91 185.57) rotate(-83.18)"/><rect class="e34db8ea-186a-4857-97c0-b3a624c4c858" x="216.19" y="57.19" width="2.62" height="2.62" transform="translate(133.58 267.51) rotate(-83.18)"/><rect class="985720f9-f87f-4024-84b0-d7b478a51fa1" x="216.19" y="178.19" width="2.62" height="2.62" transform="translate(13.44 374.14) rotate(-83.18)"/><rect class="985720f9-f87f-4024-84b0-d7b478a51fa1" x="267.19" y="28.19" width="2.62" height="2.62" transform="translate(207.32 292.6) rotate(-83.18)"/><rect class="532003b7-c875-4e24-b02c-bdb9100787ef" x="197.19" y="126.19" width="2.62" height="2.62" transform="translate(48.32 309.45) rotate(-83.18)"/><rect class="532003b7-c875-4e24-b02c-bdb9100787ef" x="35.19" y="73.19" width="2.62" height="2.62" transform="translate(-41.81 101.89) rotate(-83.18)"/><rect class="e34db8ea-186a-4857-97c0-b3a624c4c858" x="324" y="221" width="7" height="7"/><rect class="f225fa8f-f8f5-4820-ac34-263b9f226829" x="388.71" y="232.71" width="3.59" height="3.59" transform="translate(-25.74 49.5) rotate(-7.02)"/><rect class="532003b7-c875-4e24-b02c-bdb9100787ef" x="311.19" y="249.19" width="2.62" height="2.62" transform="translate(26.65 531.03) rotate(-83.18)"/><rect class="f225fa8f-f8f5-4820-ac34-263b9f226829" x="247.19" y="192.19" width="2.62" height="2.62" transform="translate(26.85 417.26) rotate(-83.18)"/><circle class="985720f9-f87f-4024-84b0-d7b478a51fa1" cx="172" cy="202" r="1"/><circle class="985720f9-f87f-4024-84b0-d7b478a51fa1" cx="255" cy="135" r="1"/><rect class="f225fa8f-f8f5-4820-ac34-263b9f226829" x="329.05" y="114" width="5" height="5" transform="translate(640.82 -50.38) rotate(132.29)"/><rect class="f225fa8f-f8f5-4820-ac34-263b9f226829" x="348.71" y="196.85" width="5" height="5" transform="translate(345.02 -204.45) rotate(59.54)"/><rect class="e34db8ea-186a-4857-97c0-b3a624c4c858" x="350.62" y="163.03" width="2.62" height="2.62" transform="translate(554.27 -167.21) rotate(96.36)"/><rect class="985720f9-f87f-4024-84b0-d7b478a51fa1" x="349.66" y="42.03" width="2.62" height="2.62" transform="translate(432.95 -300.65) rotate(96.36)"/><rect class="985720f9-f87f-4024-84b0-d7b478a51fa1" x="299.86" y="192.44" width="2.62" height="2.62" transform="translate(527.1 -84.09) rotate(96.36)"/><rect class="f225fa8f-f8f5-4820-ac34-263b9f226829" x="318.54" y="28.28" width="2.62" height="2.62" transform="translate(384.72 -285.01) rotate(96.36)"/><circle class="985720f9-f87f-4024-84b0-d7b478a51fa1" cx="313.82" cy="88.14" r="1" transform="translate(-0.69 2.51) rotate(-0.46)"/></g><g id="ee13f813-9a9b-43c9-bc7a-a9956ff2fcd4" data-name="Layer 3"><path class="195a1613-67ea-4746-8a8a-2a30d1fae36d" d="M257,234.9H270.4a7.32,7.32,0,0,1,7.32,7.32v0a0,0,0,0,1,0,0H249.67a0,0,0,0,1,0,0v0A7.32,7.32,0,0,1,257,234.9Z"/><path class="f6e50d78-4480-41ad-b66d-26c5a82c2c26" d="M259.57,238h14a4.19,4.19,0,0,1,4.19,4.19v0a0,0,0,0,1,0,0H255.38a0,0,0,0,1,0,0v0A4.19,4.19,0,0,1,259.57,238Z"/><rect class="f4a83ab0-7d86-4f83-aebb-f7bafc33d1d6" x="226.54" y="268.34" width="76.17" height="6.66" rx="3.33" ry="3.33"/><rect class="195a1613-67ea-4746-8a8a-2a30d1fae36d" x="224.87" y="252.38" width="71.14" height="13.82" rx="6.91" ry="6.91"/><rect class="f6e50d78-4480-41ad-b66d-26c5a82c2c26" x="230.24" y="255.03" width="64.3" height="11.17" rx="5.59" ry="5.59"/><path class="195a1613-67ea-4746-8a8a-2a30d1fae36d" d="M243.57,242.22h33.74a10.16,10.16,0,0,1,10.16,10.16v0a0,0,0,0,1,0,0H233.4a0,0,0,0,1,0,0v0A10.16,10.16,0,0,1,243.57,242.22Z"/><path class="f6e50d78-4480-41ad-b66d-26c5a82c2c26" d="M247.77,246.16h34a5.7,5.7,0,0,1,5.7,5.7v.52a0,0,0,0,1,0,0H242.07a0,0,0,0,1,0,0v-.52A5.7,5.7,0,0,1,247.77,246.16Z"/><circle class="195a1613-67ea-4746-8a8a-2a30d1fae36d" cx="236.25" cy="266.2" r="7.32"/><circle class="f6e50d78-4480-41ad-b66d-26c5a82c2c26" cx="237.77" cy="266.2" r="3.78"/><circle class="195a1613-67ea-4746-8a8a-2a30d1fae36d" cx="261.05" cy="266.2" r="7.32"/><circle class="f6e50d78-4480-41ad-b66d-26c5a82c2c26" cx="262.53" cy="266.2" r="3.78"/><circle class="195a1613-67ea-4746-8a8a-2a30d1fae36d" cx="285.85" cy="266.2" r="7.32"/><circle class="f6e50d78-4480-41ad-b66d-26c5a82c2c26" cx="287.29" cy="266.2" r="3.78"/><rect class="3168eea4-875b-4919-8b2a-ac7cb0150469" x="265.93" y="222.3" width="3.66" height="12.6"/><path class="f22e851b-f448-44c2-93e5-a6e6aecaf45d" d="M268.31,224.71h1.27a0,0,0,0,1,0,0V234.9a0,0,0,0,1,0,0h-2.37a0,0,0,0,1,0,0v-9.09A1.1,1.1,0,0,1,268.31,224.71Z"/><rect class="3168eea4-875b-4919-8b2a-ac7cb0150469" x="260.64" y="212.54" width="14.64" height="9.76"/><path class="f22e851b-f448-44c2-93e5-a6e6aecaf45d" d="M266.32,215.1h9a0,0,0,0,1,0,0v7.2a0,0,0,0,1,0,0h-12.5a0,0,0,0,1,0,0v-3.65A3.55,3.55,0,0,1,266.32,215.1Z"/><rect class="f22e851b-f448-44c2-93e5-a6e6aecaf45d" x="235.77" y="221.32" width="2.03" height="20.77" transform="translate(-90.78 281.24) rotate(-52.98)"/><rect class="3168eea4-875b-4919-8b2a-ac7cb0150469" x="258" y="214.98" width="2.64" height="4.88"/><path class="3168eea4-875b-4919-8b2a-ac7cb0150469" d="M258.2,242.22H242.75a7.72,7.72,0,1,1,15.45,0Z"/><path class="f22e851b-f448-44c2-93e5-a6e6aecaf45d" d="M258.2,242.22h-11.7c0-2.71,2.64-4.93,5.85-4.93S258.2,239.51,258.2,242.22Z"/><path class="f22e851b-f448-44c2-93e5-a6e6aecaf45d" d="M260.19,215.84h.46a0,0,0,0,1,0,0v4a0,0,0,0,1,0,0h-1.57a0,0,0,0,1,0,0v-2.91A1.11,1.11,0,0,1,260.19,215.84Z"/><rect class="f22e851b-f448-44c2-93e5-a6e6aecaf45d" x="214.46" y="222.4" width="2.03" height="16.74" transform="matrix(0.62, 0.79, -0.79, 0.62, 264.36, -81.15)"/><circle class="3168eea4-875b-4919-8b2a-ac7cb0150469" cx="225.27" cy="223.11" r="4.07"/><circle class="f22e851b-f448-44c2-93e5-a6e6aecaf45d" cx="225.27" cy="223.11" r="2"/><circle class="3168eea4-875b-4919-8b2a-ac7cb0150469" cx="207.79" cy="236.53" r="2.03"/><circle class="f22e851b-f448-44c2-93e5-a6e6aecaf45d" cx="207.79" cy="236.53" r="0.76"/><path class="f22e851b-f448-44c2-93e5-a6e6aecaf45d" d="M198.85,232.87l1.63,1.22a4.34,4.34,0,0,1,2.85-1.63,2.75,2.75,0,0,1,3.25,2.44,2,2,0,0,1,2.44,0,5.81,5.81,0,0,0-2-3.25,5.67,5.67,0,0,0-3.25-1.22A6.24,6.24,0,0,0,198.85,232.87Z"/><path class="f22e851b-f448-44c2-93e5-a6e6aecaf45d" d="M206.59,246l-.29-2a4.34,4.34,0,0,0,2.79-1.71,3.51,3.51,0,0,0,.62-2,3.55,3.55,0,0,0-.71-2.11,2,2,0,0,0,.41-.41,2.13,2.13,0,0,0,.41-1.22,5.1,5.1,0,0,1,1.25,6.33A6.24,6.24,0,0,1,206.59,246Z"/><rect class="1440f19d-1f8f-4575-a911-5b77c298557d" x="259.82" y="237.28" width="3.7" height="2.22" rx="1.11" ry="1.11"/><rect class="1440f19d-1f8f-4575-a911-5b77c298557d" x="264.99" y="237.28" width="3.7" height="2.22" rx="1.11" ry="1.11"/><circle class="1440f19d-1f8f-4575-a911-5b77c298557d" cx="262.77" cy="214.36" r="0.74"/><path class="d7ed3a63-ba45-41df-86a3-bc8591106d5d" d="M117.28,187q.32,2.42.68,4.79a198.21,198.21,0,0,0,29.41,0,198.06,198.06,0,0,0,21.2-2.74c.28-9.84.31-20.11,0-30.78q-.23-8-.68-15.73c-8.07-.1-16.76.08-26,.68s-18,1.57-26,2.74A213.05,213.05,0,0,0,117.28,187Z"/><path class="195a1613-67ea-4746-8a8a-2a30d1fae36d" d="M113.18,163c-4.23,6.78-6,12-8.21,18.47-3.1,9.18-2.86,12.29-1.37,14.36a7.34,7.34,0,0,0,4.1,2.74,7.15,7.15,0,0,0,5.47-1.37,70.29,70.29,0,0,1,9.28-20.67,64.75,64.75,0,0,1-1.08-8.05,49.7,49.7,0,0,1,.3-11.6,42,42,0,0,1,1.61-6.76A76.64,76.64,0,0,0,113.18,163Z"/><path class="1440f19d-1f8f-4575-a911-5b77c298557d" d="M103.39,196.84c-1.94,1.76-2.06,4.19-2.17,6.5s-.3,6.41,2.17,7.59a4.64,4.64,0,0,0,4.88-1.08c.62-.63,1-1.68,1.63-3.79.77-2.43.86-3.56,1.63-3.79s1.47.85,2.17.54.8-2.12.54-3.25a5.37,5.37,0,0,0-1.63-2.71,6.45,6.45,0,0,0-3.79-1.63A7.23,7.23,0,0,0,103.39,196.84Z"/><path class="f6e50d78-4480-41ad-b66d-26c5a82c2c26" d="M121.39,168.5c0-.59-.05-1.37-.05-1.37,0-.44,0-.87,0-1.29a80.47,80.47,0,0,0-9,15.83,11.5,11.5,0,0,0-1,7.16,10.36,10.36,0,0,0,2.94,5h0q.37-1.17.81-2.38s.44-1.23.95-2.47a124.36,124.36,0,0,1,6.55-12.47C122.38,176,121.45,170,121.39,168.5Z"/><ellipse class="f4a83ab0-7d86-4f83-aebb-f7bafc33d1d6" cx="155.69" cy="269.07" rx="37.31" ry="8.69"/><path class="195a1613-67ea-4746-8a8a-2a30d1fae36d" d="M176.79,128.83c-1.69.68-1.4,2.46-3.42,6.84-1.21,2.61-2.86,4.93-6.16,9.58-1.63,2.29-3.06,4.15-4.1,5.47,0,1.56.2,6.9.25,8.46.12,4.09.32,10.71.44,14.8a32.14,32.14,0,0,0,6.16-5.47c2-2.35,3.2-4.38,5.47-8.89a101.32,101.32,0,0,0,8.21-20.52c.65-2.44,1.14-4.71,0-6.84C182.28,129.73,179,128,176.79,128.83Z"/><path class="f6e50d78-4480-41ad-b66d-26c5a82c2c26" d="M175.42,159.61a101.32,101.32,0,0,0,8.21-20.52c.59-2.2,1-4.26.28-6.21a79.89,79.89,0,0,1-20.55,32.43q.15,1.23.26,2.53a61.21,61.21,0,0,1,.18,6.14,32.14,32.14,0,0,0,6.16-5.47C172,166.15,173.14,164.11,175.42,159.61Z"/><path class="98c8af2f-bdab-4f3b-b071-c8c1fcf6cc04" d="M122.76,201.33a54.49,54.49,0,0,0,43.09-.68c-.14-2-.36-5.12-.68-8.89-.79-9.13-1.13-9.72-1.37-14.36-.33-6.35.19-7.24,0-15-.12-5-.44-9-.68-11.63a27.75,27.75,0,0,1-17.1,8.21c-12.91,1.13-21.49-7.73-22.57-8.89a48.44,48.44,0,0,0-1.37,5.47c-1.94,10.24-.13,17.26.68,26.67A112.94,112.94,0,0,1,122.76,201.33Z"/><path class="1440f19d-1f8f-4575-a911-5b77c298557d" d="M186.71,130.93c1.94-1.76,2.06-4.19,2.17-6.5s.3-6.41-2.17-7.59a4.64,4.64,0,0,0-4.88,1.08c-.62.63-1,1.68-1.63,3.79-.77,2.43-.86,3.56-1.63,3.79s-1.47-.85-2.17-.54-.8,2.12-.54,3.25a5.37,5.37,0,0,0,1.63,2.71,6.45,6.45,0,0,0,3.79,1.63A7.23,7.23,0,0,0,186.71,130.93Z"/><path class="f6e50d78-4480-41ad-b66d-26c5a82c2c26" d="M126.55,203.13a63.94,63.94,0,0,0,39.29-1.61c-.13-1.62-.34-4.15-.62-7.26-.61-6.85-.68-6.85-.85-9.53-.08-1.24-.38-6.11-.35-10.7,0-1.26,0-2.52,0-3.78,0-1.5-.1-2.89-.18-4.16a2.93,2.93,0,0,0-4.45-2.33,26,26,0,0,1-11.43,3.7,26.83,26.83,0,0,1-17.12-4.66,2.92,2.92,0,0,0-4.48,1.81v.06c-1.52,7.05.62,21.78.62,21.78A57.11,57.11,0,0,1,126.55,203.13Z"/><path class="195a1613-67ea-4746-8a8a-2a30d1fae36d" d="M122.07,206.8a180.63,180.63,0,0,0,8.21,54.72,10.26,10.26,0,0,0,12.31,0c.92-11.39,1.93-20.68,2.74-27.36.71-5.87,1.32-10.27,2.05-10.26s1.29,5.14,2.05,11.63c.73,6.19,1.82,14.57,3.42,24.62a10,10,0,0,0,13-.68,266.44,266.44,0,0,0,1.37-28.73c-.06-9.11-.58-17.58-1.37-25.31a70.78,70.78,0,0,1-43.77,1.37Z"/><path class="1440f19d-1f8f-4575-a911-5b77c298557d" d="M130.28,261.52a10.57,10.57,0,0,0-3.42,4.1c-.56,1.2-1.76,3.81-.68,5.47,1.5,2.3,6.31,1.61,8.89.68a11.7,11.7,0,0,0,5.47-4.1,11.28,11.28,0,0,0,2.05-6.16,10.26,10.26,0,0,1-12.31,0Z"/><path class="1440f19d-1f8f-4575-a911-5b77c298557d" d="M165.84,259.46a13,13,0,0,1,4.1,3.42c1.14,1.45,2.6,3.31,2.05,4.79-1,2.7-7.91,2.08-8.21,2.05a11.53,11.53,0,0,1-10.94-9.58,10.19,10.19,0,0,0,7.52,2.05A9.93,9.93,0,0,0,165.84,259.46Z"/><path class="f6e50d78-4480-41ad-b66d-26c5a82c2c26" d="M119.34,130.88a31.12,31.12,0,0,0,0,13l4.1,2.05a19.56,19.56,0,0,1-.68-16.41Z"/><path class="f6e50d78-4480-41ad-b66d-26c5a82c2c26" d="M165.16,130.88a20.79,20.79,0,0,1,.68,13l-2.74.68a21.93,21.93,0,0,0-1.37-15.73Z"/><rect class="893a3337-2386-4d2f-b045-b25ec6d206ba" x="129.93" y="172.59" width="20.52" height="17.78" rx="1.26" ry="1.26"/><rect class="42330ce1-490a-4bbf-bb57-ae50d8ded71f" x="132.3" y="174.64" width="9.26" height="13.68" rx="0.99" ry="0.99"/><circle class="42330ce1-490a-4bbf-bb57-ae50d8ded71f" cx="155.59" cy="174.64" r="2.05"/><circle class="1440f19d-1f8f-4575-a911-5b77c298557d" cx="155.59" cy="181.14" r="2.05" transform="translate(-83.04 172.45) rotate(-47.25)"/><circle class="f49c0f57-ebac-48bb-ad79-c3b26dc7455e" cx="155.59" cy="187.63" r="2.05"/><path class="893a3337-2386-4d2f-b045-b25ec6d206ba" d="M122.76,201.33l-.68,5.47a70.07,70.07,0,0,0,43.77-1.37v-4.79a54.17,54.17,0,0,1-43.09.68Z"/><path class="893a3337-2386-4d2f-b045-b25ec6d206ba" d="M124.12,147.3c-.64.37-5,2.93-4.79,6.16.19,3,4.27,4.79,7.52,6.16,3.1,1.3,15.41,5.93,28.73,0,1.75-.78,10.92-5,10.26-8.89-.27-1.6-2.16-2.69-4.1-3.42a19.29,19.29,0,0,1-4.79,5.47,21.11,21.11,0,0,1-13,4.1,24.06,24.06,0,0,1-19.83-9.58Z"/><path class="195a1613-67ea-4746-8a8a-2a30d1fae36d" d="M128.91,121.31a20.07,20.07,0,0,0-6.84,21.2c3.31,10.84,14.95,13.38,16.41,13.68,8.23,1.65,19.56-1,23.94-10.26,3.35-7.06,1.35-15.24-2.74-20.52a21.38,21.38,0,0,0-12.31-7.52C145.53,117.45,136.44,115.33,128.91,121.31Z"/><path class="1a074a96-8f52-441c-9e4f-8e3dafc42d0b" d="M128.89,129.32a4.07,4.07,0,0,0-2.91,3.74,44.33,44.33,0,0,0,1.57,13.4,4.09,4.09,0,0,0,2.82,2.87,40.89,40.89,0,0,0,26.21-1.3,4.09,4.09,0,0,0,2.4-2.48,27.31,27.31,0,0,0,1.4-10.57,26.79,26.79,0,0,0-.64-4.29,4.07,4.07,0,0,0-3.3-3.05,60.21,60.21,0,0,0-27.54,1.67Z"/><path class="e0e65029-da41-46be-ad9f-960053288bd1" d="M132.17,131.71a3.49,3.49,0,0,0-2.53,3.2A37.45,37.45,0,0,0,131,146.38a3.53,3.53,0,0,0,2.44,2.46,36,36,0,0,0,22.76-1.11,3.52,3.52,0,0,0,2.08-2.12,23.08,23.08,0,0,0,1.21-9,22.64,22.64,0,0,0-.56-3.67,3.51,3.51,0,0,0-2.87-2.61,53,53,0,0,0-23.91,1.43Z"/><path class="f6e50d78-4480-41ad-b66d-26c5a82c2c26" d="M136.43,263.57a10.36,10.36,0,0,0,6.16-2.05c.92-11.39,1.93-20.68,2.74-27.36.22-1.84.43-3.54.64-5s.13-5.46-2-6.61c-2.67-1.41-7.63,2.3-10.22,6.13-3.79,5.59-3.15,12.32-2,22.49a100.23,100.23,0,0,0,2,12A9.91,9.91,0,0,0,136.43,263.57Z"/><path class="f6e50d78-4480-41ad-b66d-26c5a82c2c26" d="M158.24,262.19a9.69,9.69,0,0,0,1.45,0,10.14,10.14,0,0,0,6.16-2.74,266.48,266.48,0,0,0,1.37-28.73c0-6.09-.29-11.89-.68-17.38-2.93-.62-6.62-1-8.29,1s-.11,5.16,1,10.22c1,4.66.69,11.28,0,24.53C159.1,252.37,158.8,256.85,158.24,262.19Z"/></g></svg>