<svg width="500" height="500" viewBox="0 0 500 500" fill="none" xmlns="http://www.w3.org/2000/svg">
<path d="M146.911 51.9054C146.906 45.747 153.569 41.8919 158.905 44.9662L272.965 110.68C278.301 113.754 278.308 121.452 272.978 124.536L159.038 190.458C153.707 193.542 147.037 189.7 147.031 183.541L146.911 51.9054Z" fill="#FFB546"/>
<circle cx="252" cy="222" r="74" fill="#569AFF"/>
<rect x="209" y="296" width="148" height="148" rx="8" fill="#FF6161"/>
<path d="M166.513 121.857C161.07 113.357 171.57 106.357 178.07 114.857" stroke="black" stroke-width="4" stroke-linecap="round"/>
<path d="M197.513 104.857C192.07 96.3571 202.57 89.3569 209.07 97.8573" stroke="black" stroke-width="4" stroke-linecap="round"/>
<path d="M196 247.5C159.603 249.103 141.74 239.215 119.5 200M119.5 200L130.5 190M119.5 200V177M119.5 200L109.5 177M119.5 200L106 186M119.5 200L106 196.5" stroke="black" stroke-width="4" stroke-linecap="round"/>
<path d="M303.65 199.494C334.311 179.818 343.205 161.439 338.765 116.576M338.765 116.576L324.012 114.748M338.765 116.576L325.503 97.784M338.765 116.576L333.674 92.0181M338.765 116.576L341.723 97.3533M338.765 116.576L347.777 105.932" stroke="black" stroke-width="4" stroke-linecap="round"/>
</svg>
