<svg width="32" height="32" viewBox="0 0 32 32" fill="none" xmlns="http://www.w3.org/2000/svg">
<path d="M16.5 3C23.3548 3 29 8.64516 29 15.5C29 22.4052 23.3548 28 16.5 28C9.59476 28 4 22.4052 4 15.5C4 8.64516 9.59476 3 16.5 3ZM24.7157 8.79637C24.5141 9.09879 22.75 11.3669 18.7681 12.9798C19.1714 13.7863 19.4234 14.3911 19.7258 15.0968C23.254 14.6431 26.7823 15.3488 27.1351 15.4496C27.1351 12.9294 26.2278 10.6109 24.7157 8.79637ZM23.5565 7.53629C20.9355 5.21774 17.3569 4.36089 13.9798 5.16734C14.2823 5.57056 16.1976 8.19153 17.9617 11.4173C21.7419 10.006 23.3548 7.83871 23.5565 7.53629ZM11.9133 5.87298C8.93952 7.28427 6.72177 10.0565 6.01613 13.3327C6.52016 13.3831 10.9052 13.3831 15.8952 12.0726C14.131 8.89718 12.2157 6.27621 11.9133 5.87298ZM5.81452 15.5504C5.81452 18.2722 6.82258 20.7923 8.53629 22.6573C10.25 19.7339 13.7782 16.6089 17.6593 15.5C17.3569 14.8952 17.1048 14.2903 16.752 13.6855C11.4597 15.2984 6.26815 15.248 5.81452 15.1976C5.81452 15.3488 5.81452 15.4496 5.81452 15.5504ZM9.89718 23.9677C13.0726 26.4375 17.2056 26.8407 20.6331 25.379C20.4819 24.4214 19.877 21.1452 18.3649 17.2641C14.0806 18.7258 11.0565 21.6996 9.89718 23.9677ZM22.4476 24.371C24.8165 22.7581 26.5302 20.1875 27.0343 17.2137C26.631 17.1129 23.7077 16.256 20.381 16.7601C21.7419 20.6411 22.3468 23.7661 22.4476 24.371Z" fill="#3783DC"/>
</svg>
