<svg width="32" height="32" viewBox="0 0 32 32" fill="none" xmlns="http://www.w3.org/2000/svg">
<path d="M16.0268 9.8125C19.4018 9.8125 22.1875 12.5982 22.1875 15.9732C22.1875 19.4018 19.4018 22.1339 16.0268 22.1339C12.5982 22.1339 9.86607 19.4018 9.86607 15.9732C9.86607 12.5982 12.5982 9.8125 16.0268 9.8125ZM16.0268 19.9911C18.2232 19.9911 19.9911 18.2232 19.9911 15.9732C19.9911 13.7768 18.2232 12.0089 16.0268 12.0089C13.7768 12.0089 12.0089 13.7768 12.0089 15.9732C12.0089 18.2232 13.8304 19.9911 16.0268 19.9911ZM23.8482 9.59821C23.8482 8.79464 23.2054 8.15179 22.4018 8.15179C21.5982 8.15179 20.9554 8.79464 20.9554 9.59821C20.9554 10.4018 21.5982 11.0446 22.4018 11.0446C23.2054 11.0446 23.8482 10.4018 23.8482 9.59821ZM27.9196 11.0446C28.0268 13.0268 28.0268 18.9732 27.9196 20.9554C27.8125 22.8839 27.3839 24.5446 25.9911 25.9911C24.5982 27.3839 22.8839 27.8125 20.9554 27.9196C18.9732 28.0268 13.0268 28.0268 11.0446 27.9196C9.11607 27.8125 7.45536 27.3839 6.00893 25.9911C4.61607 24.5446 4.1875 22.8839 4.08036 20.9554C3.97321 18.9732 3.97321 13.0268 4.08036 11.0446C4.1875 9.11607 4.61607 7.40179 6.00893 6.00893C7.45536 4.61607 9.11607 4.1875 11.0446 4.08036C13.0268 3.97321 18.9732 3.97321 20.9554 4.08036C22.8839 4.1875 24.5982 4.61607 25.9911 6.00893C27.3839 7.40179 27.8125 9.11607 27.9196 11.0446ZM25.3482 23.0446C25.9911 21.4911 25.8304 17.7411 25.8304 15.9732C25.8304 14.2589 25.9911 10.5089 25.3482 8.90179C24.9196 7.88393 24.1161 7.02679 23.0982 6.65179C21.4911 6.00893 17.7411 6.16964 16.0268 6.16964C14.2589 6.16964 10.5089 6.00893 8.95536 6.65179C7.88393 7.08036 7.08036 7.88393 6.65179 8.90179C6.00893 10.5089 6.16964 14.2589 6.16964 15.9732C6.16964 17.7411 6.00893 21.4911 6.65179 23.0446C7.08036 24.1161 7.88393 24.9196 8.95536 25.3482C10.5089 25.9911 14.2589 25.8304 16.0268 25.8304C17.7411 25.8304 21.4911 25.9911 23.0982 25.3482C24.1161 24.9196 24.9732 24.1161 25.3482 23.0446Z" fill="#3783DC"/>
</svg>
