<svg width="32" height="32" viewBox="0 0 32 32" fill="none" xmlns="http://www.w3.org/2000/svg">
<path d="M26.3478 10.639C26.3478 10.8941 26.3478 11.0981 26.3478 11.3531C26.3478 18.4425 20.9925 26.552 11.149 26.552C8.0888 26.552 5.28363 25.6849 2.9375 24.1548C3.34552 24.2058 3.75355 24.2568 4.21257 24.2568C6.71172 24.2568 9.00685 23.3898 10.843 21.9617C8.49682 21.9107 6.50771 20.3806 5.84467 18.2385C6.20169 18.2895 6.50771 18.3405 6.86473 18.3405C7.32375 18.3405 7.83378 18.2385 8.24181 18.1365C5.79366 17.6264 3.95756 15.4843 3.95756 12.8832V12.8322C4.6716 13.2402 5.53865 13.4442 6.4057 13.4952C4.92661 12.5262 4.00856 10.8941 4.00856 9.05795C4.00856 8.03789 4.26358 7.11984 4.7226 6.3548C7.37476 9.56798 11.353 11.7101 15.7902 11.9651C15.6882 11.5571 15.6372 11.1491 15.6372 10.7411C15.6372 7.78288 18.0344 5.38574 20.9925 5.38574C22.5226 5.38574 23.8997 5.99778 24.9198 7.06884C26.0928 6.81382 27.2659 6.3548 28.286 5.74276C27.8779 7.01784 27.0619 8.03789 25.9398 8.70093C27.0109 8.59893 28.0819 8.29291 29 7.88489C28.286 8.95595 27.3679 9.874 26.3478 10.639Z" fill="#3783DC"/>
</svg>
