<svg width="32" height="32" viewBox="0 0 32 32" fill="none" xmlns="http://www.w3.org/2000/svg">
<path d="M11.9819 23.9369C11.9819 23.8295 11.873 23.7221 11.7097 23.7221C11.5464 23.7221 11.4375 23.8295 11.4375 23.9369C11.4375 24.0442 11.5464 24.1516 11.7097 24.0979C11.873 24.0979 11.9819 24.0442 11.9819 23.9369ZM10.2944 23.6684C10.3488 23.5611 10.5121 23.5074 10.6754 23.5611C10.8387 23.6148 10.8931 23.7221 10.8931 23.8295C10.8387 23.9369 10.6754 23.9905 10.5665 23.9369C10.4032 23.9369 10.2944 23.7758 10.2944 23.6684ZM12.744 23.6148C12.8528 23.5611 13.0161 23.6684 13.0161 23.7758C13.0706 23.8832 12.9617 23.9369 12.7984 23.9905C12.6351 24.0442 12.4718 23.9905 12.4718 23.8832C12.4718 23.7221 12.5806 23.6148 12.744 23.6148ZM16.2823 3C23.8488 3 30 8.69053 30 16.099C30 22.0579 26.2984 27.1579 20.8548 28.9295C20.1472 29.0906 19.875 28.6611 19.875 28.2853C19.875 27.8558 19.9294 25.6011 19.9294 23.8295C19.9294 22.5411 19.494 21.7358 19.004 21.3063C22.0524 20.9842 25.2641 20.5548 25.2641 15.4011C25.2641 13.8979 24.7198 13.2 23.8488 12.2337C23.9577 11.8579 24.4476 10.4621 23.6855 8.58316C22.5423 8.20737 19.9294 10.0326 19.9294 10.0326C18.8407 9.71053 17.6976 9.60316 16.5 9.60316C15.3569 9.60316 14.2137 9.71053 13.125 10.0326C13.125 10.0326 10.4577 8.26106 9.36895 8.58316C8.60685 10.4621 9.04234 11.8579 9.20565 12.2337C8.33468 13.2 7.89919 13.8979 7.89919 15.4011C7.89919 20.5548 11.002 20.9842 14.0504 21.3063C13.6149 21.6821 13.2883 22.2727 13.1794 23.1316C12.3629 23.5074 10.4032 24.0979 9.20565 22.0042C8.44355 20.7158 7.08266 20.6084 7.08266 20.6084C5.77621 20.6084 7.02823 21.4674 7.02823 21.4674C7.89919 21.8432 8.49798 23.4 8.49798 23.4C9.31452 25.8158 13.125 25.0105 13.125 25.0105C13.125 26.1379 13.125 27.9632 13.125 28.339C13.125 28.6611 12.9073 29.0906 12.1996 28.9832C6.75605 27.1579 3 22.0579 3 16.099C3 8.69053 8.77016 3 16.2823 3ZM8.28024 21.5211C8.33468 21.4674 8.44355 21.5211 8.55242 21.5748C8.66129 21.6821 8.66129 21.8432 8.60685 21.8969C8.49798 21.9505 8.38911 21.8969 8.28024 21.8432C8.22581 21.7358 8.17137 21.5748 8.28024 21.5211ZM7.68145 21.0916C7.73589 21.0379 7.79032 21.0379 7.89919 21.0916C8.00806 21.1453 8.0625 21.199 8.0625 21.2526C8.00806 21.36 7.89919 21.36 7.79032 21.3063C7.68145 21.2526 7.62702 21.199 7.68145 21.0916ZM9.42339 23.0242C9.53226 22.9169 9.69556 22.9705 9.80444 23.0779C9.91331 23.1853 9.91331 23.3463 9.85887 23.4C9.80444 23.5074 9.64113 23.4537 9.53226 23.3463C9.36895 23.239 9.36895 23.0779 9.42339 23.0242ZM8.8246 22.219C8.93347 22.1653 9.04234 22.219 9.15121 22.3263C9.20565 22.4337 9.20565 22.5948 9.15121 22.6484C9.04234 22.7021 8.93347 22.6484 8.8246 22.5411C8.71573 22.4337 8.71573 22.2727 8.8246 22.219Z" fill="#3783DC"/>
</svg>
