<svg width="32" height="32" viewBox="0 0 32 32" fill="none" xmlns="http://www.w3.org/2000/svg">
<path d="M26.2857 4C27.1964 4 28 4.80357 28 5.76786V26.2857C28 27.25 27.1964 28 26.2857 28H5.66071C4.75 28 4 27.25 4 26.2857V5.76786C4 4.80357 4.75 4 5.66071 4H26.2857ZM11.2321 24.5714V13.1607H7.69643V24.5714H11.2321ZM9.46429 11.5536C10.5893 11.5536 11.5 10.6429 11.5 9.51786C11.5 8.39286 10.5893 7.42857 9.46429 7.42857C8.28571 7.42857 7.375 8.39286 7.375 9.51786C7.375 10.6429 8.28571 11.5536 9.46429 11.5536ZM24.5714 24.5714V18.3036C24.5714 15.25 23.875 12.8393 20.2857 12.8393C18.5714 12.8393 17.3929 13.8036 16.9107 14.7143H16.8571V13.1607H13.4821V24.5714H17.0179V18.9464C17.0179 17.4464 17.2857 16 19.1607 16C20.9821 16 20.9821 17.7143 20.9821 19V24.5714H24.5714Z" fill="#3783DC"/>
</svg>
