<svg width="32" height="32" viewBox="0 0 32 32" fill="none" xmlns="http://www.w3.org/2000/svg">
<path d="M10.2213 8.01562C14.3492 8.01562 17.6928 11.3592 17.6928 15.4872C17.6928 19.6564 14.3492 23 10.2213 23C6.09336 23 2.79102 19.6564 2.79102 15.4872C2.79102 11.3592 6.09336 8.01562 10.2213 8.01562ZM22.1097 8.42842C24.1737 8.42842 25.8661 11.6069 25.8661 15.5285C25.8661 19.4087 24.1737 22.5872 22.1097 22.5872C20.0458 22.5872 18.3946 19.4087 18.3946 15.5285C18.3946 11.6069 20.0458 8.42842 22.1097 8.42842ZM27.8888 9.17144C28.5906 9.17144 29.2097 12.0197 29.2097 15.4872C29.2097 18.9959 28.5906 21.8442 27.8888 21.8442C27.1458 21.8442 26.5679 18.9959 26.5679 15.5285C26.5679 12.0197 27.1458 9.17144 27.8888 9.17144Z" fill="#3783DC"/>
</svg>
